<mxfile host="app.diagrams.net" modified="2022-02-17T01:56:03.482Z" agent="5.0 (Windows NT 10.0; WOW64) AppleWebKit/537.36 (KHTML, like Gecko) Chrome/98.0.4758.82 Safari/537.36" etag="PORnWS2HrW0qG5p_INLw" version="16.5.6" type="github">
  <diagram id="nGfH-9xtZ7w6r5gk4V_Y" name="Page-1">
    <mxGraphModel dx="2788" dy="482" grid="1" gridSize="10" guides="1" tooltips="1" connect="1" arrows="1" fold="1" page="1" pageScale="1" pageWidth="1920" pageHeight="1200" math="0" shadow="0">
      <root>
        <mxCell id="0" />
        <mxCell id="1" parent="0" />
        <mxCell id="-PKtnG_uuJko-iPsqwi2-1" value="Customer" style="rounded=0;whiteSpace=wrap;html=1;" vertex="1" parent="1">
          <mxGeometry x="150" y="200" width="120" height="60" as="geometry" />
        </mxCell>
        <mxCell id="-PKtnG_uuJko-iPsqwi2-2" value="Rekening" style="rounded=0;whiteSpace=wrap;html=1;" vertex="1" parent="1">
          <mxGeometry x="580" y="200" width="120" height="60" as="geometry" />
        </mxCell>
        <mxCell id="-PKtnG_uuJko-iPsqwi2-3" value="Memiliki" style="rhombus;whiteSpace=wrap;html=1;" vertex="1" parent="1">
          <mxGeometry x="370" y="190" width="110" height="80" as="geometry" />
        </mxCell>
        <mxCell id="-PKtnG_uuJko-iPsqwi2-4" value="&lt;u&gt;NoKTP&lt;/u&gt;" style="ellipse;whiteSpace=wrap;html=1;" vertex="1" parent="1">
          <mxGeometry x="-40" y="240" width="120" height="40" as="geometry" />
        </mxCell>
        <mxCell id="-PKtnG_uuJko-iPsqwi2-5" value="Alamat" style="ellipse;whiteSpace=wrap;html=1;" vertex="1" parent="1">
          <mxGeometry x="-30" y="170" width="120" height="40" as="geometry" />
        </mxCell>
        <mxCell id="-PKtnG_uuJko-iPsqwi2-6" value="Saldo" style="ellipse;whiteSpace=wrap;html=1;" vertex="1" parent="1">
          <mxGeometry x="740" y="200" width="120" height="40" as="geometry" />
        </mxCell>
        <mxCell id="-PKtnG_uuJko-iPsqwi2-7" value="&lt;u&gt;No_rekening&lt;/u&gt;" style="ellipse;whiteSpace=wrap;html=1;" vertex="1" parent="1">
          <mxGeometry x="590" y="120" width="120" height="40" as="geometry" />
        </mxCell>
        <mxCell id="-PKtnG_uuJko-iPsqwi2-8" value="Tgl_transaksi" style="ellipse;whiteSpace=wrap;html=1;" vertex="1" parent="1">
          <mxGeometry x="370" y="110" width="120" height="40" as="geometry" />
        </mxCell>
        <mxCell id="-PKtnG_uuJko-iPsqwi2-9" value="Nama_lengkap" style="ellipse;whiteSpace=wrap;html=1;" vertex="1" parent="1">
          <mxGeometry x="160" y="90" width="120" height="40" as="geometry" />
        </mxCell>
        <mxCell id="-PKtnG_uuJko-iPsqwi2-10" value="NoTlp" style="ellipse;whiteSpace=wrap;html=1;" vertex="1" parent="1">
          <mxGeometry x="20" y="100" width="120" height="40" as="geometry" />
        </mxCell>
        <mxCell id="-PKtnG_uuJko-iPsqwi2-11" value="" style="endArrow=none;html=1;rounded=0;exitX=1;exitY=0.5;exitDx=0;exitDy=0;" edge="1" parent="1" source="-PKtnG_uuJko-iPsqwi2-4">
          <mxGeometry width="50" height="50" relative="1" as="geometry">
            <mxPoint x="100" y="280" as="sourcePoint" />
            <mxPoint x="150" y="230" as="targetPoint" />
          </mxGeometry>
        </mxCell>
        <mxCell id="-PKtnG_uuJko-iPsqwi2-12" value="" style="endArrow=none;html=1;rounded=0;exitX=1;exitY=1;exitDx=0;exitDy=0;" edge="1" parent="1" source="-PKtnG_uuJko-iPsqwi2-5">
          <mxGeometry width="50" height="50" relative="1" as="geometry">
            <mxPoint x="80" y="250" as="sourcePoint" />
            <mxPoint x="150" y="230" as="targetPoint" />
          </mxGeometry>
        </mxCell>
        <mxCell id="-PKtnG_uuJko-iPsqwi2-13" value="" style="endArrow=none;html=1;rounded=0;exitX=0.392;exitY=0;exitDx=0;exitDy=0;exitPerimeter=0;entryX=0.767;entryY=0.9;entryDx=0;entryDy=0;entryPerimeter=0;" edge="1" parent="1" source="-PKtnG_uuJko-iPsqwi2-1" target="-PKtnG_uuJko-iPsqwi2-10">
          <mxGeometry width="50" height="50" relative="1" as="geometry">
            <mxPoint x="90" y="180" as="sourcePoint" />
            <mxPoint x="140" y="130" as="targetPoint" />
          </mxGeometry>
        </mxCell>
        <mxCell id="-PKtnG_uuJko-iPsqwi2-14" value="" style="endArrow=none;html=1;rounded=0;exitX=0.583;exitY=0;exitDx=0;exitDy=0;exitPerimeter=0;entryX=0.5;entryY=1;entryDx=0;entryDy=0;" edge="1" parent="1" source="-PKtnG_uuJko-iPsqwi2-1" target="-PKtnG_uuJko-iPsqwi2-9">
          <mxGeometry width="50" height="50" relative="1" as="geometry">
            <mxPoint x="185" y="160" as="sourcePoint" />
            <mxPoint x="255" y="130" as="targetPoint" />
          </mxGeometry>
        </mxCell>
        <mxCell id="-PKtnG_uuJko-iPsqwi2-15" value="" style="endArrow=none;html=1;rounded=0;exitX=0.5;exitY=0;exitDx=0;exitDy=0;" edge="1" parent="1" source="-PKtnG_uuJko-iPsqwi2-3">
          <mxGeometry width="50" height="50" relative="1" as="geometry">
            <mxPoint x="410" y="190" as="sourcePoint" />
            <mxPoint x="425" y="150" as="targetPoint" />
          </mxGeometry>
        </mxCell>
        <mxCell id="-PKtnG_uuJko-iPsqwi2-16" value="" style="endArrow=none;html=1;rounded=0;entryX=0.5;entryY=1;entryDx=0;entryDy=0;" edge="1" parent="1" target="-PKtnG_uuJko-iPsqwi2-7">
          <mxGeometry width="50" height="50" relative="1" as="geometry">
            <mxPoint x="650" y="200" as="sourcePoint" />
            <mxPoint x="660" y="160" as="targetPoint" />
          </mxGeometry>
        </mxCell>
        <mxCell id="-PKtnG_uuJko-iPsqwi2-17" value="" style="endArrow=none;html=1;rounded=0;exitX=1;exitY=0.5;exitDx=0;exitDy=0;" edge="1" parent="1" source="-PKtnG_uuJko-iPsqwi2-2">
          <mxGeometry width="50" height="50" relative="1" as="geometry">
            <mxPoint x="670" y="250" as="sourcePoint" />
            <mxPoint x="740" y="220" as="targetPoint" />
          </mxGeometry>
        </mxCell>
        <mxCell id="-PKtnG_uuJko-iPsqwi2-18" value="" style="endArrow=none;html=1;rounded=0;entryX=0;entryY=0.5;entryDx=0;entryDy=0;exitX=1;exitY=0.5;exitDx=0;exitDy=0;" edge="1" parent="1" source="-PKtnG_uuJko-iPsqwi2-1" target="-PKtnG_uuJko-iPsqwi2-3">
          <mxGeometry width="50" height="50" relative="1" as="geometry">
            <mxPoint x="300" y="260" as="sourcePoint" />
            <mxPoint x="350" y="210" as="targetPoint" />
          </mxGeometry>
        </mxCell>
        <mxCell id="-PKtnG_uuJko-iPsqwi2-19" value="" style="endArrow=none;html=1;rounded=0;exitX=1;exitY=0.5;exitDx=0;exitDy=0;entryX=0;entryY=0.5;entryDx=0;entryDy=0;" edge="1" parent="1" target="-PKtnG_uuJko-iPsqwi2-2">
          <mxGeometry width="50" height="50" relative="1" as="geometry">
            <mxPoint x="480" y="230" as="sourcePoint" />
            <mxPoint x="550" y="200" as="targetPoint" />
          </mxGeometry>
        </mxCell>
        <mxCell id="-PKtnG_uuJko-iPsqwi2-20" value="Membeli" style="rhombus;whiteSpace=wrap;html=1;" vertex="1" parent="1">
          <mxGeometry x="155" y="310" width="110" height="80" as="geometry" />
        </mxCell>
        <mxCell id="-PKtnG_uuJko-iPsqwi2-21" value="Barang" style="rounded=0;whiteSpace=wrap;html=1;" vertex="1" parent="1">
          <mxGeometry x="155" y="440" width="120" height="60" as="geometry" />
        </mxCell>
        <mxCell id="-PKtnG_uuJko-iPsqwi2-22" value="Nama_barang" style="ellipse;whiteSpace=wrap;html=1;" vertex="1" parent="1">
          <mxGeometry x="-10" y="400" width="120" height="40" as="geometry" />
        </mxCell>
        <mxCell id="-PKtnG_uuJko-iPsqwi2-23" value="&lt;u&gt;Id_barang&lt;/u&gt;" style="ellipse;whiteSpace=wrap;html=1;" vertex="1" parent="1">
          <mxGeometry x="-60" y="450" width="120" height="40" as="geometry" />
        </mxCell>
        <mxCell id="-PKtnG_uuJko-iPsqwi2-24" value="Harga" style="ellipse;whiteSpace=wrap;html=1;" vertex="1" parent="1">
          <mxGeometry y="500" width="120" height="40" as="geometry" />
        </mxCell>
        <mxCell id="-PKtnG_uuJko-iPsqwi2-27" value="Proses" style="rhombus;whiteSpace=wrap;html=1;" vertex="1" parent="1">
          <mxGeometry x="410" y="430" width="110" height="80" as="geometry" />
        </mxCell>
        <mxCell id="-PKtnG_uuJko-iPsqwi2-29" value="Transaksi" style="rounded=0;whiteSpace=wrap;html=1;" vertex="1" parent="1">
          <mxGeometry x="620" y="440" width="120" height="60" as="geometry" />
        </mxCell>
        <mxCell id="-PKtnG_uuJko-iPsqwi2-30" value="Total_harga" style="ellipse;whiteSpace=wrap;html=1;" vertex="1" parent="1">
          <mxGeometry x="530" y="550" width="120" height="40" as="geometry" />
        </mxCell>
        <mxCell id="-PKtnG_uuJko-iPsqwi2-31" value="Tgl_pesan" style="ellipse;whiteSpace=wrap;html=1;" vertex="1" parent="1">
          <mxGeometry x="650" y="570" width="120" height="40" as="geometry" />
        </mxCell>
        <mxCell id="-PKtnG_uuJko-iPsqwi2-32" value="Banyak" style="ellipse;whiteSpace=wrap;html=1;" vertex="1" parent="1">
          <mxGeometry x="720" y="530" width="120" height="40" as="geometry" />
        </mxCell>
        <mxCell id="-PKtnG_uuJko-iPsqwi2-33" value="" style="endArrow=none;html=1;rounded=0;exitX=0.5;exitY=0;exitDx=0;exitDy=0;" edge="1" parent="1" source="-PKtnG_uuJko-iPsqwi2-20">
          <mxGeometry width="50" height="50" relative="1" as="geometry">
            <mxPoint x="210" y="300" as="sourcePoint" />
            <mxPoint x="210" y="260" as="targetPoint" />
          </mxGeometry>
        </mxCell>
        <mxCell id="-PKtnG_uuJko-iPsqwi2-34" value="" style="endArrow=none;html=1;rounded=0;entryX=0.5;entryY=1;entryDx=0;entryDy=0;exitX=0.45;exitY=-0.083;exitDx=0;exitDy=0;exitPerimeter=0;" edge="1" parent="1" source="-PKtnG_uuJko-iPsqwi2-21" target="-PKtnG_uuJko-iPsqwi2-20">
          <mxGeometry width="50" height="50" relative="1" as="geometry">
            <mxPoint x="180" y="430" as="sourcePoint" />
            <mxPoint x="230" y="380" as="targetPoint" />
          </mxGeometry>
        </mxCell>
        <mxCell id="-PKtnG_uuJko-iPsqwi2-35" value="" style="endArrow=none;html=1;rounded=0;exitX=1;exitY=1;exitDx=0;exitDy=0;" edge="1" parent="1" source="-PKtnG_uuJko-iPsqwi2-22">
          <mxGeometry width="50" height="50" relative="1" as="geometry">
            <mxPoint x="105" y="510" as="sourcePoint" />
            <mxPoint x="155" y="460" as="targetPoint" />
          </mxGeometry>
        </mxCell>
        <mxCell id="-PKtnG_uuJko-iPsqwi2-36" value="" style="endArrow=none;html=1;rounded=0;exitX=1;exitY=0.5;exitDx=0;exitDy=0;entryX=0;entryY=0.5;entryDx=0;entryDy=0;" edge="1" parent="1" source="-PKtnG_uuJko-iPsqwi2-23" target="-PKtnG_uuJko-iPsqwi2-21">
          <mxGeometry width="50" height="50" relative="1" as="geometry">
            <mxPoint x="110" y="510" as="sourcePoint" />
            <mxPoint x="150" y="470" as="targetPoint" />
          </mxGeometry>
        </mxCell>
        <mxCell id="-PKtnG_uuJko-iPsqwi2-37" value="" style="endArrow=none;html=1;rounded=0;exitX=1;exitY=0.5;exitDx=0;exitDy=0;" edge="1" parent="1" source="-PKtnG_uuJko-iPsqwi2-24">
          <mxGeometry width="50" height="50" relative="1" as="geometry">
            <mxPoint x="120" y="570" as="sourcePoint" />
            <mxPoint x="200" y="500" as="targetPoint" />
          </mxGeometry>
        </mxCell>
        <mxCell id="-PKtnG_uuJko-iPsqwi2-38" value="&lt;u&gt;Id_transaksi&lt;/u&gt;" style="ellipse;whiteSpace=wrap;html=1;" vertex="1" parent="1">
          <mxGeometry x="490" y="490" width="120" height="40" as="geometry" />
        </mxCell>
        <mxCell id="-PKtnG_uuJko-iPsqwi2-39" value="" style="endArrow=none;html=1;rounded=0;entryX=0;entryY=0.5;entryDx=0;entryDy=0;exitX=1;exitY=0.5;exitDx=0;exitDy=0;" edge="1" parent="1" source="-PKtnG_uuJko-iPsqwi2-21" target="-PKtnG_uuJko-iPsqwi2-27">
          <mxGeometry width="50" height="50" relative="1" as="geometry">
            <mxPoint x="275" y="480" as="sourcePoint" />
            <mxPoint x="325" y="430" as="targetPoint" />
          </mxGeometry>
        </mxCell>
        <mxCell id="-PKtnG_uuJko-iPsqwi2-40" value="" style="endArrow=none;html=1;rounded=0;entryX=0;entryY=0.5;entryDx=0;entryDy=0;" edge="1" parent="1">
          <mxGeometry width="50" height="50" relative="1" as="geometry">
            <mxPoint x="520" y="470" as="sourcePoint" />
            <mxPoint x="620" y="469.5" as="targetPoint" />
          </mxGeometry>
        </mxCell>
        <mxCell id="-PKtnG_uuJko-iPsqwi2-41" value="" style="endArrow=none;html=1;rounded=0;exitX=1;exitY=1;exitDx=0;exitDy=0;" edge="1" parent="1" source="-PKtnG_uuJko-iPsqwi2-38">
          <mxGeometry width="50" height="50" relative="1" as="geometry">
            <mxPoint x="650" y="550" as="sourcePoint" />
            <mxPoint x="670" y="500" as="targetPoint" />
          </mxGeometry>
        </mxCell>
        <mxCell id="-PKtnG_uuJko-iPsqwi2-42" value="" style="endArrow=none;html=1;rounded=0;exitX=1;exitY=0;exitDx=0;exitDy=0;" edge="1" parent="1" source="-PKtnG_uuJko-iPsqwi2-30">
          <mxGeometry width="50" height="50" relative="1" as="geometry">
            <mxPoint x="640" y="550" as="sourcePoint" />
            <mxPoint x="670" y="500" as="targetPoint" />
          </mxGeometry>
        </mxCell>
        <mxCell id="-PKtnG_uuJko-iPsqwi2-43" value="" style="endArrow=none;html=1;rounded=0;entryX=0.5;entryY=1;entryDx=0;entryDy=0;exitX=0.392;exitY=0.05;exitDx=0;exitDy=0;exitPerimeter=0;" edge="1" parent="1" source="-PKtnG_uuJko-iPsqwi2-31" target="-PKtnG_uuJko-iPsqwi2-29">
          <mxGeometry width="50" height="50" relative="1" as="geometry">
            <mxPoint x="660" y="560" as="sourcePoint" />
            <mxPoint x="710" y="510" as="targetPoint" />
          </mxGeometry>
        </mxCell>
        <mxCell id="-PKtnG_uuJko-iPsqwi2-44" value="" style="endArrow=none;html=1;rounded=0;entryX=0.5;entryY=1;entryDx=0;entryDy=0;" edge="1" parent="1" target="-PKtnG_uuJko-iPsqwi2-29">
          <mxGeometry width="50" height="50" relative="1" as="geometry">
            <mxPoint x="760" y="530" as="sourcePoint" />
            <mxPoint x="810" y="480" as="targetPoint" />
          </mxGeometry>
        </mxCell>
        <mxCell id="-PKtnG_uuJko-iPsqwi2-46" value="Bayar" style="rhombus;whiteSpace=wrap;html=1;" vertex="1" parent="1">
          <mxGeometry x="610" y="310" width="110" height="80" as="geometry" />
        </mxCell>
        <mxCell id="-PKtnG_uuJko-iPsqwi2-47" value="" style="endArrow=none;html=1;rounded=0;exitX=0.5;exitY=0;exitDx=0;exitDy=0;entryX=0.692;entryY=0.983;entryDx=0;entryDy=0;entryPerimeter=0;" edge="1" parent="1" source="-PKtnG_uuJko-iPsqwi2-46" target="-PKtnG_uuJko-iPsqwi2-2">
          <mxGeometry width="50" height="50" relative="1" as="geometry">
            <mxPoint x="600" y="310" as="sourcePoint" />
            <mxPoint x="650" y="260" as="targetPoint" />
          </mxGeometry>
        </mxCell>
        <mxCell id="-PKtnG_uuJko-iPsqwi2-48" value="" style="endArrow=none;html=1;rounded=0;exitX=0.5;exitY=0;exitDx=0;exitDy=0;entryX=0.692;entryY=0.983;entryDx=0;entryDy=0;entryPerimeter=0;" edge="1" parent="1">
          <mxGeometry width="50" height="50" relative="1" as="geometry">
            <mxPoint x="665.98" y="441.02" as="sourcePoint" />
            <mxPoint x="664.02" y="390" as="targetPoint" />
          </mxGeometry>
        </mxCell>
        <mxCell id="-PKtnG_uuJko-iPsqwi2-49" value="N" style="text;html=1;strokeColor=none;fillColor=none;align=center;verticalAlign=middle;whiteSpace=wrap;rounded=0;" vertex="1" parent="1">
          <mxGeometry x="250" y="200" width="60" height="30" as="geometry" />
        </mxCell>
        <mxCell id="-PKtnG_uuJko-iPsqwi2-50" value="N" style="text;html=1;strokeColor=none;fillColor=none;align=center;verticalAlign=middle;whiteSpace=wrap;rounded=0;" vertex="1" parent="1">
          <mxGeometry x="540" y="200" width="60" height="30" as="geometry" />
        </mxCell>
        <mxCell id="-PKtnG_uuJko-iPsqwi2-51" value="N" style="text;html=1;strokeColor=none;fillColor=none;align=center;verticalAlign=middle;whiteSpace=wrap;rounded=0;" vertex="1" parent="1">
          <mxGeometry x="190" y="260" width="60" height="30" as="geometry" />
        </mxCell>
        <mxCell id="-PKtnG_uuJko-iPsqwi2-52" value="N" style="text;html=1;strokeColor=none;fillColor=none;align=center;verticalAlign=middle;whiteSpace=wrap;rounded=0;" vertex="1" parent="1">
          <mxGeometry x="190" y="410" width="60" height="30" as="geometry" />
        </mxCell>
        <mxCell id="-PKtnG_uuJko-iPsqwi2-53" value="N" style="text;html=1;strokeColor=none;fillColor=none;align=center;verticalAlign=middle;whiteSpace=wrap;rounded=0;" vertex="1" parent="1">
          <mxGeometry x="620" y="250" width="60" height="30" as="geometry" />
        </mxCell>
        <mxCell id="-PKtnG_uuJko-iPsqwi2-54" value="N" style="text;html=1;strokeColor=none;fillColor=none;align=center;verticalAlign=middle;whiteSpace=wrap;rounded=0;" vertex="1" parent="1">
          <mxGeometry x="620" y="410" width="60" height="30" as="geometry" />
        </mxCell>
      </root>
    </mxGraphModel>
  </diagram>
</mxfile>
